<?xml version="1.0" encoding="UTF-8" standalone="no"?><svg version="1.1" viewBox="0.0 0.0 100.0 100.0" fill="none" stroke="none" stroke-linecap="square" stroke-miterlimit="10" xmlns:xlink="http://www.w3.org/1999/xlink" xmlns="http://www.w3.org/2000/svg"><clipPath id="p.0"><path d="m0 0l100.0 0l0 100.0l-100.0 0l0 -100.0z" clip-rule="nonzero"/></clipPath><g clip-path="url(#p.0)"><path fill="#000000" fill-opacity="0.0" d="m0 0l100.0 0l0 100.0l-100.0 0z" fill-rule="evenodd"/><path fill="#ffffff" d="m35.876274 34.20268c-0.07078171 2.0290947 -0.18284988 4.4239006 -0.33620834 7.184414c-0.14156342 2.7487144 -0.21234512 5.137623 -0.21234512 7.1667213l0 15.66061l-18.155336 0l12.61672 -19.25282c1.0145283 -1.8875313 1.9877682 -3.6983833 2.9197197 -5.4325523c0.94374466 -1.7459679 1.8521042 -3.5214233 2.725071 -5.326374zm-3.698307 -11.643707l-27.392267 42.841053l0 8.476196l30.54202 0l0 17.837166l11.749657 0l0 -17.837166l8.688374 0l0 -9.661797l-8.688374 0l0 -41.655453z" fill-rule="evenodd"/><path fill="#ffffff" d="m72.26005 8.293963c-2.170662 1.242074 -4.5241776 2.2939224 -7.060547 3.1555405c-2.5363693 0.8616171 -5.5092278 1.6001482 -8.918583 2.2155914l0 7.4188757l12.723141 0l0 43.103333l-15.430569 0l0 9.701607l41.637753 0l0 -9.701607l-13.590218 0l0 -55.893337z" fill-rule="evenodd"/></g></svg>